<?xml version="1.0" encoding="utf-8"?>
<!-- Generator: Adobe Illustrator 21.0.2, SVG Export Plug-In . SVG Version: 6.00 Build 0)  -->
<svg version="1.1" id="Layer_1" xmlns="http://www.w3.org/2000/svg" xmlns:xlink="http://www.w3.org/1999/xlink" x="0px" y="0px"
	 viewBox="0 0 320 65" style="enable-background:new 0 0 320 65;" xml:space="preserve">
<style type="text/css">
	.st0{fill:#2E6E84;}
</style>
<g>
	<path class="st0" d="M14.7,6.9h5l14.7,43.4h-4.9l-3.3-9.9H7.9l-3.2,9.9H0L14.7,6.9z M24.9,36.4l-7.8-23.3L9.2,36.4H24.9z"/>
	<path class="st0" d="M39.6,5.6h4.7V35l13.3-16.8h5.1L51.8,31.8l11.8,18.4h-5l-9.9-14.9l-4.5,5.8v9.1h-4.7V5.6z"/>
	<path class="st0" d="M64.6,18.2H70l0.8-9l3.9-0.8v9.7h8.5v3.7h-8.5v19.9c0,3,0.5,4.7,4.5,4.7h3.9v3.8c-0.6,0.1-3.9,0.1-4.4,0.1
		c-7.3,0-8.8-2.6-8.8-8.1V21.9h-5.4V18.2z"/>
	<path class="st0" d="M89.7,7.9h4.8v6h-4.8V7.9z M89.7,18.2h4.7v32h-4.7V18.2z"/>
	<path class="st0" d="M99.2,18.2h4.8l8.8,26.5l8.8-26.5h4.7l-11,32.3h-5L99.2,18.2z"/>
	<path d="M131.2,18.9l1.3-0.1l0.2,5.8c1.2-3.5,3.9-6.3,11-6.3c10.3,0,11.4,7.6,11.4,16.2c0,8.6-1.2,16.1-11.4,16.1
		c-6.9,0-9.4-2.4-10.9-5.9v14.8h-1.6V18.9z M153.5,34.5c0-7.8-1-14.8-9.8-14.8c-10.3,0-10.9,7-10.9,14.8c0,7.8,0.6,14.7,10.9,14.7
		C152.4,49.2,153.5,42.4,153.5,34.5z"/>
	<path d="M160.9,34.5c0-8.6,1.2-16.2,12.2-16.2c11.1,0,12.3,7.6,12.3,16.2c0,8.6-1.2,16.2-12.3,16.2
		C162.1,50.7,160.9,43.1,160.9,34.5z M183.8,34.5c0-7.8-1-14.8-10.7-14.8c-9.6,0-10.6,7-10.6,14.8c0,7.8,1,14.8,10.6,14.8
		C182.8,49.3,183.8,42.4,183.8,34.5z"/>
	<path d="M192.6,18.9l1.2-0.1l0.3,6c1-3.5,3.9-6.3,9.6-6.3v1.4c-9.2,0.2-9.5,7.6-9.5,14.9v15.5h-1.6V18.9z"/>
	<path d="M206.3,18.8h5.2l0.2-9.9l1.4-0.2v10.1h8.6v1.4H213v23.3c0,3.5,0.6,5.4,4.8,5.4h3.7v1.4h-3.7c-5.7,0-6.5-2.4-6.5-6.8V20.1
		h-5.2V18.8z"/>
	<path d="M226.2,40.9c0-9.5,6.7-11.1,18.1-11.1h1.7c0-6.5-0.9-10.1-8.1-10.1c-3.3,0-6.3,0.8-8.3,1.8l-0.8-1.3c2.2-1,5.6-1.9,9.1-1.9
		c8.9,0,9.8,4.1,9.8,11.6V45c0,3,0.3,3.8,3.2,3.8v1.4h-0.3c-4.2,0-4.6-1.5-4.6-5.3c-2.3,4.4-6.1,5.6-10.2,5.6
		C229.5,50.5,226.2,47.5,226.2,40.9z M246,37.9v-6.7h-1.7c-11,0-16.5,1.3-16.5,9.7c0,6.7,3.4,8.3,8,8.3
		C240.7,49.2,246,46.9,246,37.9z"/>
	<path d="M264,50.3c-5.8,0-6-1.9-6-5.4V5.6h1.6v39.3c0,2.8,0.1,4,4.7,4v1.4H264z"/>
	<path d="M268.6,34.4c0-9.4,1.7-16.2,12-16.2c10.9,0,10.5,7.2,10.5,16h-20.9v0.1c0,8.7,1.4,14.8,10.5,14.8c4.4,0,6.7-1,8.5-1.9
		l0.8,1.3c-1.9,0.9-4.5,2-9.2,2C270.1,50.7,268.6,44,268.6,34.4z M270.2,32.9h19.3c-0.1-7.4-0.1-13.3-8.9-13.3
		C272.2,19.7,270.4,25.2,270.2,32.9z"/>
	<path d="M298,18.9l1.3-0.1l0.2,5.5c1.3-3.5,3.6-6,10.5-6c9.4,0,10,4.5,10,11.6v20.3h-1.6V29.9c0-6.7-0.7-10.2-8.5-10.2
		c-8.8,0-10.3,5-10.3,15v15.6H298V18.9z"/>
</g>
</svg>
